<?xml version="1.0" encoding="iso-8859-1"?>
<!-- Generator: Adobe Illustrator 19.0.0, SVG Export Plug-In . SVG Version: 6.00 Build 0)  -->
<svg version="1.1" id="Layer_1" xmlns="http://www.w3.org/2000/svg" xmlns:xlink="http://www.w3.org/1999/xlink" x="0px" y="0px"
	 viewBox="0 0 473.654 473.654" style="enable-background:new 0 0 473.654 473.654;" xml:space="preserve">
<circle style="fill:#FCB315;" cx="236.827" cy="236.827" r="236.827"/>
<g>
	<path style="fill:#5E5F5E;" d="M119.001,238.17c-14.192,0-25.687,11.499-25.687,25.687v56.924
		c0,14.188,11.495,20.583,25.687,20.583c14.184,0,25.683-6.395,25.683-20.583v-56.924
		C144.684,249.673,133.185,238.17,119.001,238.17z"/>
	<path style="fill:#5E5F5E;" d="M364.283,238.17c-14.188,0-25.683,11.499-25.683,25.687v56.924
		c0,14.188,11.495,20.583,25.683,20.583c14.188,0,25.683-6.395,25.683-20.583v-56.924
		C389.966,249.673,378.471,238.17,364.283,238.17z"/>
</g>
<path style="fill:#67B8CB;" d="M384.619,175.266c-16.271-43.196-24.606-94.922-55.477-94.922c0,0-55.058-4.162-88.116-4.162
	c-31.158,0-88.19,4.162-88.19,4.162c-33.11,0-40.664,52.051-56.303,95.243c-23.664,10.228-43.091,38.465-40.245,61.183
	c3.71,29.617,6.742,91.635,49.045,91.635h271.336c42.306,0,47.541-74.975,48.929-91.635S408.683,185.322,384.619,175.266z"/>
<path style="fill:#D0D1D1;" d="M80.341,318.249c6.29,6.279,14.416,10.157,24.995,10.157h271.336c9.76,0,17.55-3.99,23.761-10.332
	c0.262-0.266-82.304-3.194-163.191-3.085C157.967,315.1,80.341,318.249,80.341,318.249z"/>
<g>
	<path style="fill:#67B8CB;" d="M384.619,175.266c-16.271-43.196-24.606-94.922-55.477-94.922c0,0-55.058-4.162-88.116-4.162
		c-31.158,0-88.19,4.162-88.19,4.162c-33.11,0-40.664,52.051-56.303,95.243c-23.664,10.228-45.799,38.97-40.245,61.183
		c5.55,22.213,367.922,16.66,369.309,0S408.683,185.322,384.619,175.266z"/>
	<path style="fill:#67B8CB;" d="M384.619,175.266c-16.271-43.196-24.606-94.922-55.477-94.922c0,0-55.058-4.162-88.116-4.162
		c-31.158,0-88.19,4.162-88.19,4.162c-33.11,0-40.664,52.051-56.303,95.243C72.869,185.816,408.683,185.322,384.619,175.266z"/>
</g>
<path style="fill:#5EB1C0;" d="M345.073,282.588c0,11.499-9.012,20.826-20.134,20.826H156.946c-11.118,0-20.13-9.327-20.13-20.826
	l0,0c0-11.495,9.012-20.822,20.13-20.822h167.997C336.061,261.766,345.073,271.093,345.073,282.588L345.073,282.588z"/>
<path style="fill:#FFFFFF;" d="M285.378,281.897c0,4.749-3.844,8.59-8.594,8.59h-71.688c-4.746,0-8.59-3.841-8.59-8.59l0,0
	c0-4.745,3.844-8.59,8.59-8.59h71.688C281.534,273.307,285.378,277.151,285.378,281.897L285.378,281.897z"/>
<path style="fill:#5EB1C0;" d="M352.552,278.576c0,12.647,26.379,14.427,39.034,14.427c12.651,0,22.909-10.261,22.909-22.909
	c0-12.651-10.258-17.591-22.909-17.591C378.931,252.504,352.552,265.929,352.552,278.576z"/>
<path style="fill:#FFFFFF;" d="M357.141,277.319c0,10.781,22.475,12.288,33.252,12.288s19.513-8.732,19.513-19.513
	c0-10.774-8.736-13.885-19.513-13.885S357.141,266.546,357.141,277.319z"/>
<path style="fill:#5EB1C0;" d="M131.263,278.576c0,12.647-26.383,14.427-39.034,14.427s-22.909-10.261-22.909-22.909
	c0-12.651,10.254-17.591,22.909-17.591S131.263,265.929,131.263,278.576z"/>
<path style="fill:#FFFFFF;" d="M126.674,277.319c0,10.781-22.475,12.288-33.252,12.288s-19.517-8.732-19.517-19.513
	c0-10.774,8.739-13.885,19.517-13.885S126.674,266.546,126.674,277.319z"/>
<path style="opacity:0.8;fill:#B1D4D7;enable-background:new    ;" d="M164.444,88.347c0,0,49.516-3.399,76.564-3.399
	c28.701,0,76.485,3.399,76.485,3.399c27.194,0,34.797,41.618,48.798,76.945c6.709,16.907-257.668,16.858-251.202-0.097
	C128.563,129.883,135.376,88.347,164.444,88.347z"/>
<path style="fill:#D3E0E1;" d="M164.444,88.347c0,0,49.516-3.399,76.564-3.399c11.675,0,26.502,0.561,39.995,1.234l-70.173,91.444
	c-53.001-1.129-98.467-5.269-95.744-12.43C128.563,129.883,135.376,88.347,164.444,88.347z"/>
<g>
</g>
<g>
</g>
<g>
</g>
<g>
</g>
<g>
</g>
<g>
</g>
<g>
</g>
<g>
</g>
<g>
</g>
<g>
</g>
<g>
</g>
<g>
</g>
<g>
</g>
<g>
</g>
<g>
</g>
</svg>
