<?xml version="1.0" encoding="UTF-8"?>
<svg xmlns="http://www.w3.org/2000/svg" xmlns:xlink="http://www.w3.org/1999/xlink" width="900pt" height="650pt" viewBox="0 0 900 650" version="1.1">
<g id="surface1">
<path style=" stroke:none;fill-rule:nonzero;fill:rgb(55.294118%,77.647059%,24.705882%);fill-opacity:1;" d="M 900 325 C 900 504.492188 698.527344 650 450 650 C 201.472656 650 0 504.492188 0 325 C 0 145.507812 201.472656 0 450 0 C 698.527344 0 900 145.507812 900 325 Z M 900 325 "/>
<path style=" stroke:none;fill-rule:nonzero;fill:rgb(100%,100%,100%);fill-opacity:1;" d="M 444.601562 256.101562 L 435.601562 253.5 C 433.800781 253.5 370.800781 237.898438 342 192.398438 C 313.199219 148.199219 331.199219 93.601562 333 91 L 334.800781 85.800781 L 342 87.101562 C 343.800781 87.101562 405 93.601562 441 113.101562 C 480.601562 133.898438 450 236.601562 446.398438 248.300781 Z M 347.398438 100.101562 C 343.800781 114.398438 336.601562 154.699219 356.398438 187.199219 C 376.199219 218.398438 414 234 432 239.199219 C 444.601562 197.601562 453.601562 135.199219 432 123.5 C 405 109.199219 365.398438 102.699219 347.398438 100.101562 Z M 347.398438 100.101562 "/>
<path style=" stroke:none;fill-rule:nonzero;fill:rgb(55.294118%,77.647059%,24.705882%);fill-opacity:1;" d="M 441 244.398438 C 441 244.398438 376.199219 185.898438 437.398438 124.800781 C 498.601562 63.699219 581.398438 59.800781 581.398438 59.800781 C 581.398438 59.800781 615.601562 127.398438 581.398438 184.601562 C 547.199219 240.5 441 244.398438 441 244.398438 Z M 441 244.398438 "/>
<path style=" stroke:none;fill-rule:nonzero;fill:rgb(100%,100%,100%);fill-opacity:1;" d="M 437.398438 249.601562 L 435.601562 247 C 435.601562 247 367.199219 183.300781 432 120.898438 C 495 58.5 577.800781 53.300781 581.398438 53.300781 L 586.800781 53.300781 L 588.601562 57.199219 C 590.398438 59.800781 624.601562 128.699219 588.601562 187.199219 C 552.601562 247 446.398438 250.898438 441 250.898438 Z M 576 66.300781 C 556.199219 68.898438 493.199219 80.601562 444.601562 128.699219 C 394.199219 178.101562 435.601562 226.199219 446.398438 237.898438 C 466.199219 236.601562 547.199219 228.800781 574.199219 182 C 601.199219 136.5 583.199219 81.898438 576 66.300781 Z M 576 66.300781 "/>
<path style=" stroke:none;fill-rule:nonzero;fill:rgb(100%,100%,100%);fill-opacity:1;" d="M 441 249.601562 C 439.199219 249.601562 437.398438 249.601562 437.398438 248.300781 C 433.800781 247 432 243.101562 433.800781 240.5 L 574.199219 55.898438 C 576 53.300781 581.398438 52 585 54.601562 C 588.601562 55.898438 590.398438 59.800781 588.601562 62.398438 L 448.199219 247 C 448.199219 248.300781 444.601562 249.601562 441 249.601562 Z M 441 249.601562 "/>
<path style=" stroke:none;fill-rule:nonzero;fill:rgb(100%,100%,100%);fill-opacity:1;" d="M 561.601562 145.601562 C 559.800781 145.601562 559.800781 145.601562 561.601562 145.601562 L 520.199219 141.699219 L 493.199219 114.398438 C 489.601562 111.800781 491.398438 107.898438 495 106.601562 C 496.800781 104 502.199219 105.300781 504 107.898438 L 527.398438 130 L 561.601562 132.601562 C 567 132.601562 568.800781 136.5 568.800781 139.101562 C 568.800781 143 565.199219 145.601562 561.601562 145.601562 Z M 561.601562 145.601562 "/>
<path style=" stroke:none;fill-rule:nonzero;fill:rgb(100%,100%,100%);fill-opacity:1;" d="M 556.199219 175.5 L 495 172.898438 L 493.199219 170.300781 C 487.800781 165.101562 459 136.5 457.199219 133.898438 C 455.398438 131.300781 455.398438 127.398438 459 126.101562 C 462.601562 124.800781 468 124.800781 469.800781 127.398438 C 471.601562 128.699219 489.601562 148.199219 502.199219 159.898438 L 554.398438 161.199219 C 559.800781 161.199219 563.398438 163.800781 561.601562 167.699219 C 565.199219 172.898438 561.601562 175.5 556.199219 175.5 Z M 556.199219 175.5 "/>
<path style=" stroke:none;fill-rule:nonzero;fill:rgb(100%,100%,100%);fill-opacity:1;" d="M 525.601562 210.601562 C 525.601562 210.601562 523.800781 210.601562 523.800781 210.601562 L 473.398438 202.800781 L 442.800781 176.800781 C 439.199219 174.199219 439.199219 170.300781 442.800781 167.699219 C 446.398438 165.101562 451.800781 165.101562 455.398438 167.699219 L 482.398438 189.800781 L 527.398438 197.601562 C 532.800781 198.898438 534.601562 201.5 534.601562 205.398438 C 532.800781 208 529.199219 210.601562 525.601562 210.601562 Z M 525.601562 210.601562 "/>
<path style=" stroke:none;fill-rule:nonzero;fill:rgb(0%,0%,0%);fill-opacity:1;" d="M 712.800781 323.699219 C 712.800781 310.699219 698.398438 300.300781 680.398438 300.300781 L 642.601562 300.300781 C 633.601562 280.800781 619.199219 256.101562 617.398438 250.898438 C 615.601562 249.601562 597.601562 228.800781 563.398438 222.300781 C 538.199219 218.398438 450 217.101562 450 217.101562 C 450 217.101562 379.800781 217.101562 342 222.300781 C 302.398438 227.5 288 237.898438 280.800781 249.601562 C 273.601562 261.300781 262.800781 280.800781 252 300.300781 L 219.601562 300.300781 C 201.601562 300.300781 187.199219 310.699219 187.199219 323.699219 C 187.199219 336.699219 201.601562 347.101562 219.601562 347.101562 L 225 347.101562 C 217.800781 358.800781 214.199219 369.199219 212.398438 374.398438 C 207 387.398438 210.601562 465.398438 210.601562 465.398438 L 212.398438 494 C 212.398438 508.300781 228.601562 520 248.398438 520 L 262.800781 520 C 282.601562 520 298.800781 508.300781 298.800781 494 L 298.800781 474.5 L 599.398438 474.5 L 599.398438 494 C 599.398438 508.300781 615.601562 520 635.398438 520 L 648 520 C 667.800781 520 684 508.300781 684 494 L 684 391.300781 C 684 373.101562 675 357.5 667.800781 347.101562 L 680.398438 347.101562 C 698.398438 347.101562 712.800781 336.699219 712.800781 323.699219 Z M 324 254.800781 L 570.601562 254.800781 L 608.398438 325 L 288 325 Z M 284.398438 418.601562 C 266.398438 418.601562 250.199219 408.199219 250.199219 393.898438 C 250.199219 380.898438 264.601562 369.199219 284.398438 369.199219 C 302.398438 369.199219 318.601562 379.601562 318.601562 393.898438 C 318.601562 406.898438 302.398438 418.601562 284.398438 418.601562 Z M 608.398438 418.601562 C 590.398438 418.601562 574.199219 408.199219 574.199219 393.898438 C 574.199219 380.898438 588.601562 369.199219 608.398438 369.199219 C 628.199219 369.199219 642.601562 379.601562 642.601562 393.898438 C 642.601562 406.898438 626.398438 418.601562 608.398438 418.601562 Z M 608.398438 418.601562 "/>
</g>
</svg>
